# xmcd
#
# Track frame offsets:
# 150
# 26080
# 56292
# 84490
# 104002
# 133262
# 158698
# 189618
# 213820
# 243187
# 264667
# 287316
#
# Disc length: 4114 seconds
#
#
# Revision: 0
# Processed by: cddbd v1.5.1PL2 Copyright (c) Steve Scherf et al.
# Submitted via: FreeRIP 2.944 
#
DISCID=a110100c
DTITLE=Jon Cutler - Jon Cutler In The Mix
DYEAR=2006
DGENRE=House
TTITLE0=Faze Action Presents Orto feat. Vanessa Freeman " Waiting Is Over" (83 West Remix)
TTITLE1=Jon Cutler and Michael Watford  "Watcha Gonna Do" (Distant Music Mix)
TTITLE2=DJ Oji feat. Esteban "Esteban"
TTITLE3=Siji "Irinajo" (Irinadub Mix)
TTITLE4=Melba Moore "My Heart Belongs To You" (Distant Music Mix)
TTITLE5=Rodamaal Feat. Claudia Franco "Insomnia"
TTITLE6=Ron Hall and The Mothafunkaz feat. Mark Evans "The Way U Love Me"
TTITLE7=Kerri Chandler "So Let The Wind Come"
TTITLE8=Monique Bingham "Poor People"
TTITLE9=Jon Cutler "The Harmonica Walk"
TTITLE10=Karizma "By His Grace"
TTITLE11=Harley and Muscle feat. Gerideau "Deeper Love"
EXTD=
EXTT0=
EXTT1=
EXTT2=
EXTT3=
EXTT4=
EXTT5=
EXTT6=
EXTT7=
EXTT8=
EXTT9=
EXTT10=
EXTT11=
PLAYORDER=
